<?xml version="1.0" encoding="UTF-8"?>
<!-- Generator: visioncortex VTracer 0.6.3 -->
<svg version="1.1" xmlns="http://www.w3.org/2000/svg" width="1280" height="1280">
<path d="M0 0 C422.4 0 844.8 0 1280 0 C1280 422.4 1280 844.8 1280 1280 C857.6 1280 435.2 1280 0 1280 C0 857.6 0 435.2 0 0 Z " fill="#00102A" transform="translate(0,0)"/>
<path d="M0 0 C0.9 -0.01 1.79 -0.01 2.72 -0.02 C4.21 -0.03 4.21 -0.03 5.73 -0.03 C7.28 -0.04 7.28 -0.04 8.87 -0.05 C12.33 -0.07 15.78 -0.08 19.24 -0.09 C20.41 -0.1 21.59 -0.1 22.8 -0.1 C29.02 -0.12 35.24 -0.14 41.46 -0.15 C47.91 -0.16 54.35 -0.19 60.79 -0.23 C65.73 -0.26 70.67 -0.27 75.61 -0.27 C77.98 -0.28 80.36 -0.29 82.74 -0.31 C86.05 -0.33 89.37 -0.33 92.69 -0.32 C93.68 -0.34 94.67 -0.35 95.69 -0.36 C96.59 -0.35 97.49 -0.35 98.42 -0.34 C99.6 -0.34 99.6 -0.34 100.8 -0.35 C102.84 0.15 102.84 0.15 104.57 1.94 C106.75 5.73 106.73 9 105.84 13.15 C103.82 17.67 101.44 21.91 98.96 26.19 C97.22 29.22 95.59 32.31 93.96 35.4 C93.3 36.64 92.63 37.89 91.97 39.13 C89.15 44.44 86.35 49.76 83.56 55.08 C80.6 60.71 77.61 66.33 74.6 71.93 C72.58 75.7 70.66 79.5 68.78 83.33 C66.26 88.42 63.45 93.28 60.55 98.16 C58.34 102.02 56.38 105.98 54.42 109.98 C52.7 113.42 50.91 116.82 49.09 120.21 C45.98 126.01 42.9 131.82 39.84 137.65 C36.45 144.09 33.04 150.52 29.6 156.93 C27.58 160.7 25.66 164.5 23.78 168.33 C21.26 173.42 18.45 178.28 15.55 183.16 C13.34 187.02 11.38 190.98 9.42 194.98 C7.7 198.42 5.91 201.82 4.09 205.21 C1.02 210.93 -2.02 216.66 -5.04 222.4 C-5.46 223.2 -5.88 223.99 -6.31 224.82 C-7.17 226.45 -8.02 228.08 -8.88 229.71 C-10.14 232.11 -11.41 234.51 -12.67 236.91 C-13.29 238.09 -13.29 238.09 -13.92 239.28 C-14.75 240.86 -15.58 242.43 -16.41 244.01 C-18.52 248.03 -20.63 252.05 -22.73 256.07 C-26.49 263.27 -30.27 270.44 -34.35 277.46 C-37.55 282.99 -40.44 288.61 -43.26 294.33 C-46.65 301.19 -50.29 307.93 -53.86 314.69 C-55.55 317.89 -57.24 321.09 -58.92 324.28 C-59.75 325.86 -60.58 327.44 -61.41 329.01 C-63.52 333.03 -65.63 337.05 -67.73 341.07 C-71.49 348.27 -75.27 355.44 -79.35 362.46 C-82.55 367.99 -85.44 373.61 -88.26 379.33 C-91.65 386.19 -95.28 392.92 -98.86 399.67 C-100.15 402.13 -101.45 404.59 -102.74 407.06 C-103.17 407.86 -103.59 408.66 -104.02 409.49 C-104.86 411.09 -105.7 412.68 -106.54 414.28 C-108.48 417.99 -110.45 421.69 -112.46 425.36 C-120.26 439.6 -125.16 453.67 -120.84 470.06 C-116.43 483.6 -108.21 496.24 -101.02 508.45 C-98.53 512.7 -96.21 516.98 -94.04 521.4 C-92.93 523.6 -91.67 525.68 -90.35 527.77 C-88 531.62 -85.95 535.53 -83.97 539.58 C-80.67 546.33 -76.95 552.78 -73.14 559.25 C-70.09 564.47 -67.32 569.75 -64.69 575.19 C-62.49 579.45 -59.98 583.5 -57.48 587.58 C-54.61 592.31 -52.11 597.14 -49.69 602.11 C-45.87 609.71 -41.48 617.02 -37.04 624.27 C-34.3 628.79 -31.98 633.47 -29.66 638.22 C-28.29 640.91 -26.81 643.46 -25.22 646.02 C-22.49 650.47 -20.2 655.06 -17.92 659.75 C-15.82 663.99 -13.49 667.96 -10.97 671.96 C-2.05 686.22 -2.05 686.22 -3.16 694.15 C-4.75 696.3 -5.63 697.05 -8.29 697.52 C-9.11 697.52 -9.94 697.52 -10.79 697.52 C-11.74 697.53 -12.69 697.54 -13.67 697.54 C-14.71 697.54 -15.76 697.53 -16.83 697.52 C-18.47 697.52 -18.47 697.52 -20.15 697.53 C-23.79 697.54 -27.43 697.53 -31.07 697.51 C-33.59 697.51 -36.11 697.51 -38.63 697.51 C-43.92 697.51 -49.21 697.5 -54.5 697.48 C-60.62 697.46 -66.73 697.46 -72.85 697.46 C-78.73 697.47 -84.62 697.46 -90.5 697.45 C-93 697.45 -95.51 697.45 -98.01 697.45 C-101.51 697.45 -105 697.44 -108.5 697.42 C-109.54 697.42 -110.58 697.43 -111.65 697.43 C-112.6 697.42 -113.55 697.42 -114.53 697.41 C-115.77 697.4 -115.77 697.4 -117.04 697.4 C-119.16 697.15 -119.16 697.15 -122.16 695.15 C-123.38 692.99 -123.38 692.99 -124.66 690.21 C-127.38 684.56 -130.42 679.17 -133.6 673.77 C-137.52 667.1 -141.11 660.39 -144.51 653.44 C-146.48 649.52 -148.64 645.73 -150.84 641.94 C-153.94 636.58 -156.9 631.15 -159.85 625.71 C-164.08 617.91 -168.4 610.17 -172.79 602.46 C-177.24 594.63 -181.54 586.73 -185.7 578.73 C-188.78 572.82 -192.03 567.03 -195.37 561.26 C-197.49 557.58 -199.51 553.86 -201.53 550.12 C-203.15 547.16 -204.81 544.23 -206.48 541.29 C-209.48 536.01 -212.43 530.73 -215.1 525.27 C-220.21 514.85 -226 504.76 -231.91 494.77 C-234.77 489.92 -237.34 484.96 -239.81 479.9 C-241.26 476.96 -242.76 474.05 -244.3 471.16 C-246.85 465.2 -247.5 459.72 -247.47 453.33 C-247.49 452.59 -247.51 451.85 -247.52 451.08 C-247.53 441.28 -243.99 433.12 -239.35 424.65 C-238.9 423.82 -238.46 422.99 -238 422.13 C-235.31 417.15 -232.49 412.26 -229.51 407.44 C-227.98 404.84 -226.67 402.17 -225.35 399.46 C-223.02 394.69 -220.43 390.17 -217.66 385.65 C-214.96 381.23 -212.42 376.82 -210.16 372.15 C-207.9 367.48 -205.37 363.07 -202.66 358.65 C-199.43 353.36 -196.53 348.02 -193.82 342.45 C-188.01 330.9 -181.49 319.65 -174.63 308.7 C-173.13 306.25 -173.13 306.25 -172.27 303.83 C-170.71 300.06 -168.59 296.69 -166.47 293.21 C-162.58 286.69 -159.07 280.11 -155.74 273.28 C-153.89 269.6 -151.78 266.13 -149.62 262.62 C-148.05 259.96 -146.7 257.24 -145.35 254.46 C-143.02 249.69 -140.43 245.17 -137.66 240.65 C-134.96 236.23 -132.42 231.82 -130.16 227.15 C-127.9 222.48 -125.37 218.07 -122.66 213.65 C-119.43 208.36 -116.53 203.02 -113.82 197.45 C-108.01 185.9 -101.49 174.65 -94.63 163.7 C-93.13 161.25 -93.13 161.25 -92.27 158.83 C-90.71 155.06 -88.59 151.69 -86.47 148.21 C-82.58 141.69 -79.07 135.11 -75.74 128.28 C-73.89 124.6 -71.78 121.13 -69.62 117.62 C-68.05 114.96 -66.7 112.24 -65.35 109.46 C-63.02 104.69 -60.43 100.17 -57.66 95.65 C-54.96 91.23 -52.42 86.82 -50.16 82.15 C-47.9 77.48 -45.37 73.07 -42.66 68.65 C-39.43 63.36 -36.53 58.02 -33.82 52.45 C-28.01 40.9 -21.49 29.65 -14.63 18.7 C-13.21 16.23 -12.22 13.79 -11.16 11.15 C-10.18 9.38 -9.15 7.63 -8.1 5.9 C-7.31 4.59 -7.31 4.59 -6.5 3.26 C-4.42 -0.02 -3.82 0.02 0 0 Z " fill="#1DB5FD" transform="translate(879.1622009277344,181.8528289794922)"/>
<path d="M0 0 C1.08 -0 2.17 -0 3.28 -0 C6.86 0 10.44 0.03 14.01 0.06 C16.49 0.07 18.98 0.08 21.46 0.08 C27.99 0.1 34.51 0.14 41.04 0.18 C47.7 0.22 54.37 0.24 61.03 0.26 C74.1 0.3 87.17 0.37 100.24 0.45 C100.78 1.48 101.33 2.5 101.88 3.55 C102.6 4.91 103.33 6.27 104.05 7.63 C104.4 8.3 104.76 8.97 105.12 9.67 C107.11 13.39 109.15 17.05 111.37 20.64 C113.47 24.06 115.3 27.53 117.06 31.14 C119.39 35.91 121.97 40.43 124.74 44.95 C127.42 49.33 129.94 53.7 132.18 58.33 C134.95 64.03 138.11 69.44 141.35 74.88 C146.9 84.23 152.42 93.61 157.18 103.39 C159.96 109.06 163.12 114.46 166.35 119.88 C169.29 124.83 172.17 129.81 174.99 134.83 C175.33 135.43 175.67 136.04 176.02 136.66 C179.14 142.23 182.19 147.85 185.24 153.45 C186.76 156.24 188.28 159.02 189.79 161.8 C190.81 163.66 191.82 165.52 192.83 167.38 C197.08 175.18 201.36 182.95 205.81 190.64 C209.48 197.04 213.06 203.49 216.62 209.95 C217.14 210.9 217.67 211.84 218.21 212.81 C224.65 224.58 226.79 236.03 224.19 249.28 C222.16 256.08 218.6 262.24 215.24 268.45 C214.57 269.72 213.89 270.99 213.22 272.25 C212.23 274.11 211.24 275.96 210.24 277.81 C207.84 282.28 205.55 286.79 203.31 291.33 C197.94 302.16 192.38 312.93 186.31 323.4 C185.13 325.6 185.13 325.6 183.92 328.61 C181.99 333.18 179.64 337.52 177.31 341.89 C174.54 347.09 171.81 352.3 169.19 357.58 C167.68 360.57 166.08 363.51 164.49 366.45 C161.7 371.66 158.99 376.91 156.37 382.2 C153.41 388.17 150.36 394.07 147.24 399.95 C143.81 406.44 140.47 412.96 137.21 419.53 C134.42 425.15 131.49 430.7 128.53 436.24 C126.18 440.65 123.9 445.1 121.68 449.58 C116.85 459.31 111.78 468.92 106.35 478.33 C105.13 480.67 104.13 483.09 103.11 485.52 C101.54 489.03 99.69 492.39 97.87 495.77 C95.42 500.35 92.97 504.92 90.68 509.58 C88.68 513.63 86.57 517.6 84.43 521.58 C81.65 526.75 78.97 531.95 76.37 537.2 C73.41 543.17 70.36 549.07 67.24 554.95 C63.81 561.44 60.47 567.96 57.21 574.53 C54.42 580.16 51.48 585.7 48.53 591.24 C46.22 595.58 43.98 599.93 41.81 604.33 C38.62 610.75 35.29 617.09 31.94 623.42 C28.87 629.22 25.93 635.06 23.02 640.94 C20.64 645.65 18.15 650.31 15.66 654.97 C13.72 658.61 11.82 662.28 10 665.99 C9.64 666.71 9.28 667.44 8.91 668.19 C8.23 669.58 7.56 670.97 6.89 672.37 C5.34 675.55 4.01 678.22 1.24 680.45 C-1.81 680.74 -4.66 680.84 -7.72 680.81 C-8.64 680.81 -9.55 680.81 -10.5 680.82 C-13.54 680.82 -16.59 680.8 -19.63 680.78 C-21.75 680.78 -23.87 680.78 -25.99 680.78 C-30.44 680.77 -34.89 680.76 -39.34 680.74 C-45.02 680.71 -50.7 680.7 -56.38 680.69 C-61.81 680.69 -67.25 680.67 -72.69 680.66 C-73.72 680.66 -74.74 680.65 -75.8 680.65 C-105.06 680.58 -105.06 680.58 -109.76 677.45 C-111.29 671.87 -110.32 668.14 -107.88 663.08 C-107.57 662.39 -107.25 661.7 -106.92 660.99 C-104.23 655.23 -101.26 649.61 -98.24 644.02 C-95.39 638.75 -92.79 633.39 -90.26 627.95 C-86.98 620.91 -83.48 614.03 -79.79 607.19 C-77.5 602.92 -75.41 598.63 -73.52 594.17 C-72.47 591.8 -71.09 589.66 -69.76 587.45 C-69.06 585.83 -68.37 584.2 -67.69 582.57 C-65.58 577.77 -63.12 573.13 -60.76 568.45 C-56.48 560 -52.29 551.52 -48.26 542.95 C-44.53 535.03 -40.67 527.19 -36.72 519.37 C-35.14 516.24 -33.58 513.09 -32.01 509.95 C-29.67 505.27 -27.32 500.59 -24.97 495.92 C-20.14 486.31 -15.36 476.68 -10.76 466.95 C-4.75 454.26 1.58 441.72 7.9 429.18 C12.43 420.16 16.88 411.11 21.14 401.96 C23.55 396.83 26.12 391.81 28.81 386.83 C31.79 381.27 34.6 375.68 37.24 369.95 C39.87 364.27 42.65 358.71 45.62 353.2 C49.51 345.97 53.08 338.62 56.58 331.19 C59.11 325.83 61.69 320.5 64.37 315.2 C67.08 309.83 69.7 304.41 72.24 298.95 C74.78 293.52 77.37 288.12 80.06 282.77 C80.37 282.13 80.69 281.49 81.02 280.83 C83.01 276.88 85.02 272.94 87.05 269.02 C95.59 252.4 103.22 237.15 97.26 218.15 C93.12 207.16 86.67 197.05 80.88 186.87 C77.07 180.18 73.34 173.44 69.62 166.7 C64.79 157.97 59.86 149.3 54.82 140.69 C51.91 135.69 49.28 130.61 46.77 125.41 C44.56 121.13 42.06 117.06 39.56 112.95 C35.58 106.41 31.96 99.7 28.38 92.93 C24.54 85.7 20.6 78.54 16.5 71.45 C13.69 66.52 11.01 61.51 8.31 56.52 C4.46 49.41 0.49 42.42 -3.73 35.53 C-6.59 30.83 -9.09 26 -11.47 21.04 C-12.59 18.79 -13.82 16.74 -15.19 14.64 C-17.16 10.63 -17.11 8.68 -15.76 4.45 C-11.28 -0.69 -6.33 -0.09 0 0 Z " fill="#1DB5FD" transform="translate(380.757080078125,395.5458984375)"/>
</svg>
